<svg width="402" height="6646" viewBox="0 0 402 6646" fill="none" xmlns="http://www.w3.org/2000/svg">
<rect x="-151" y="20" width="533" height="6460" fill="#F3F3F3"/>
<g clip-path="url(#clip0_720_2888)">
<path d="M183.877 322.167C188.483 328.823 192.586 335.83 196.151 343.126L197.026 344.92L304.008 296.141L276.284 247.96L182.803 320.515L183.877 322.167Z" fill="#FD4703"/>
<path opacity="0.2" d="M198.345 483.153C194.998 490.653 191.089 497.876 186.654 504.757L185.58 506.425L279.291 576.305L306.171 527.605L199.235 481.312L198.345 483.153Z" fill="#FD4703"/>
<path opacity="0.2" d="M145.982 547.982C139.389 552.798 132.444 557.085 125.208 560.806L123.459 561.703L170.268 669.598L217.185 641.181L147.562 546.77L145.982 547.982Z" fill="#FD4703"/>
<path opacity="0.2" d="M47.4224 694.318L67.843 694.129L83.4768 541.955L28.9502 542.49L47.4224 694.318Z" fill="#FD4703"/>
<path opacity="0.2" d="M179.489 385.123L180.011 441.046L328.049 422.1L327.865 401.157L179.489 385.123Z" fill="#FD4703"/>
<path opacity="0.2" d="M62.6268 134.291L42.2061 134.479L26.5723 286.653L81.0989 286.118L62.6268 134.291Z" fill="#FD4703"/>
<path opacity="0.2" d="M143.972 281.649L213.012 184.296L165.497 156.807L119.869 267.661L121.649 268.511C128.824 271.98 135.736 275.993 142.33 280.516L143.972 281.649Z" fill="#FD4703"/>
</g>
<g clip-path="url(#clip1_720_2888)">
<path d="M112.789 372.851C114.852 375.828 116.69 378.962 118.287 382.226L118.679 383.028L166.607 361.209L154.187 339.657L112.308 372.112L112.789 372.851Z" fill="#FD4703"/>
<path opacity="0.2" d="M119.27 444.862C117.771 448.217 116.02 451.448 114.033 454.526L113.552 455.272L155.534 486.53L167.576 464.746L119.669 444.039L119.27 444.862Z" fill="#FD4703"/>
<path opacity="0.2" d="M95.8115 473.861C92.8581 476.015 89.7466 477.933 86.505 479.597L85.7214 479.998L106.692 528.262L127.711 515.55L96.5195 473.319L95.8115 473.861Z" fill="#FD4703"/>
<path opacity="0.2" d="M14.6233 354.712C17.5823 352.64 20.6912 350.803 23.9229 349.215L24.7271 348.814L3.43342 299.868L-17.606 312.615L13.9016 355.254L14.6233 354.712Z" fill="#FD4703"/>
<path opacity="0.2" d="M15.2145 474.945L14.479 474.438L-15.7019 516.951L5.60554 529.254L25.5383 480.843L24.741 480.456C21.4325 478.871 18.2477 477.029 15.2145 474.945Z" fill="#FD4703"/>
<path opacity="0.2" d="M51.6571 539.319L60.8056 539.235L67.8095 471.165L43.3816 471.404L51.6571 539.319Z" fill="#FD4703"/>
<path opacity="0.2" d="M110.823 401.012L111.057 426.027L177.378 417.552L177.295 408.184L110.823 401.012Z" fill="#FD4703"/>
<path opacity="0.2" d="M58.4686 288.81L49.3201 288.895L42.3162 356.964L66.7441 356.725L58.4686 288.81Z" fill="#FD4703"/>
<path opacity="0.2" d="M94.9111 354.726L125.841 311.179L104.554 298.882L84.113 348.469L84.9104 348.849C88.1247 350.401 91.2217 352.196 94.1756 354.219L94.9111 354.726Z" fill="#FD4703"/>
</g>
<g clip-path="url(#clip2_720_2888)">
<path d="M80.3353 396.005C81.2379 397.301 82.0422 398.667 82.7409 400.088L82.9123 400.438L103.881 390.934L98.447 381.547L80.1248 395.683L80.3353 396.005Z" fill="#FD4703"/>
<path opacity="0.2" d="M83.1711 427.369C82.5151 428.831 81.749 430.238 80.8797 431.579L80.6692 431.904L99.0366 445.518L104.305 436.03L83.3455 427.011L83.1711 427.369Z" fill="#FD4703"/>
<path opacity="0.2" d="M30.5829 408.746L1.56738 412.437L1.60347 416.517L30.6881 419.641L30.5829 408.746Z" fill="#FD4703"/>
<path opacity="0.2" d="M26.9443 400.533C27.6266 399.084 28.4157 397.69 29.3049 396.363L29.5274 396.035L11.124 382.396L5.87061 391.884L26.779 400.885L26.9443 400.533Z" fill="#FD4703"/>
<path opacity="0.2" d="M72.9078 440C71.6157 440.939 70.2544 441.774 68.8362 442.499L68.4934 442.673L77.6681 463.695L86.8638 458.158L73.2176 439.764L72.9078 440Z" fill="#FD4703"/>
<path opacity="0.2" d="M37.3879 388.104C38.6825 387.202 40.0426 386.401 41.4565 385.71L41.8083 385.535L32.4923 364.216L23.2876 369.768L37.0721 388.34L37.3879 388.104Z" fill="#FD4703"/>
<path opacity="0.2" d="M29.4281 432.216C28.5208 430.882 27.7164 429.478 27.0224 428.016L26.854 427.658L6.2915 436.984L11.7253 446.368L29.6506 432.541L29.4281 432.216Z" fill="#FD4703"/>
<path opacity="0.2" d="M37.6465 440.472L37.3248 440.251L24.1206 458.768L33.4426 464.127L42.1632 443.041L41.8144 442.873C40.3669 442.182 38.9735 441.38 37.6465 440.472Z" fill="#FD4703"/>
<path opacity="0.2" d="M53.5903 468.511L57.5927 468.474L60.657 438.826L49.9697 438.93L53.5903 468.511Z" fill="#FD4703"/>
<path opacity="0.2" d="M79.4753 408.271L79.5776 419.166L108.593 415.475L108.557 411.394L79.4753 408.271Z" fill="#FD4703"/>
<path opacity="0.2" d="M56.5701 359.4L52.5677 359.437L49.5034 389.085L60.1906 388.981L56.5701 359.4Z" fill="#FD4703"/>
<path opacity="0.2" d="M72.5139 388.11L86.0459 369.143L76.7329 363.787L67.7898 385.385L68.1386 385.55C69.5449 386.226 70.8998 387.008 72.1922 387.89L72.5139 388.11Z" fill="#FD4703"/>
</g>
<g clip-path="url(#clip3_720_2888)">
<path d="M62.6657 1541.16C64.4955 1543.8 66.1257 1546.58 67.5421 1549.48L67.8895 1550.2L110.394 1530.82L99.3789 1511.67L62.239 1540.5L62.6657 1541.16Z" fill="#FD4703"/>
<path opacity="0.2" d="M68.4138 1605.12C67.0839 1608.1 65.531 1610.97 63.769 1613.7L63.3423 1614.36L100.574 1642.12L111.253 1622.78L68.7673 1604.38L68.4138 1605.12Z" fill="#FD4703"/>
<path opacity="0.2" d="M47.6098 1630.87C44.9906 1632.79 42.2313 1634.49 39.3565 1635.97L38.6616 1636.32L57.259 1679.19L75.8991 1667.9L48.2377 1630.39L47.6098 1630.87Z" fill="#FD4703"/>
<path opacity="0.2" d="M8.45227 1689.01L16.5654 1688.94L22.7767 1628.48L1.11328 1628.69L8.45227 1689.01Z" fill="#FD4703"/>
<path opacity="0.2" d="M60.9224 1566.17L61.1296 1588.39L119.945 1580.86L119.872 1572.54L60.9224 1566.17Z" fill="#FD4703"/>
<path opacity="0.2" d="M14.4929 1466.51L6.37978 1466.59L0.168457 1527.05L21.8319 1526.83L14.4929 1466.51Z" fill="#FD4703"/>
<path opacity="0.2" d="M46.8114 1525.06L74.2412 1486.38L55.3634 1475.46L37.2354 1519.5L37.9424 1519.84C40.793 1521.22 43.5395 1522.81 46.1592 1524.61L46.8114 1525.06Z" fill="#FD4703"/>
</g>
<g clip-path="url(#clip4_720_2888)">
<path d="M34.4224 1561.29C35.2421 1562.48 35.9724 1563.72 36.607 1565.02L36.7626 1565.34L55.8044 1556.67L50.8699 1548.1L34.2312 1561L34.4224 1561.29Z" fill="#FD4703"/>
<path opacity="0.2" d="M36.9974 1589.9C36.4016 1591.24 35.7059 1592.52 34.9165 1593.74L34.7253 1594.04L51.405 1606.46L56.1893 1597.8L37.1557 1589.58L36.9974 1589.9Z" fill="#FD4703"/>
<path opacity="0.2" d="M27.6772 1601.42C26.5038 1602.28 25.2677 1603.04 23.9798 1603.7L23.6685 1603.86L32.0001 1623.04L40.3508 1617.99L27.9585 1601.21L27.6772 1601.42Z" fill="#FD4703"/>
<path opacity="0.2" d="M10.1348 1627.43L13.7695 1627.4L16.5521 1600.35L6.84692 1600.45L10.1348 1627.43Z" fill="#FD4703"/>
<path opacity="0.2" d="M33.6414 1572.48L33.7342 1582.42L60.0836 1579.05L60.0508 1575.33L33.6414 1572.48Z" fill="#FD4703"/>
<path opacity="0.2" d="M12.8409 1527.9L9.20626 1527.94L6.42358 1554.98L16.1288 1554.89L12.8409 1527.9Z" fill="#FD4703"/>
<path opacity="0.2" d="M27.3196 1554.09L39.6081 1536.79L31.1509 1531.9L23.0295 1551.61L23.3463 1551.76C24.6234 1552.37 25.8538 1553.09 27.0274 1553.89L27.3196 1554.09Z" fill="#FD4703"/>
</g>
<g clip-path="url(#clip5_720_2888)">
<path d="M21.5287 1570.49C21.8873 1571.01 22.2069 1571.55 22.4845 1572.11L22.5526 1572.25L30.8833 1568.48L28.7245 1564.75L21.4451 1570.36L21.5287 1570.49Z" fill="#FD4703"/>
<path opacity="0.2" d="M22.6551 1582.95C22.3945 1583.53 22.0901 1584.09 21.7448 1584.63L21.6611 1584.75L28.9585 1590.16L31.0516 1586.39L22.7244 1582.81L22.6551 1582.95Z" fill="#FD4703"/>
<path opacity="0.2" d="M1.76198 1575.55L-9.76587 1577.02L-9.75153 1578.64L1.80379 1579.88L1.76198 1575.55Z" fill="#FD4703"/>
<path opacity="0.2" d="M0.31644 1572.29C0.587481 1571.72 0.901 1571.16 1.25429 1570.63L1.3427 1570.5L-5.96898 1565.08L-8.05615 1568.85L0.25073 1572.43L0.31644 1572.29Z" fill="#FD4703"/>
<path opacity="0.2" d="M18.5776 1587.97C18.0642 1588.34 17.5234 1588.68 16.9599 1588.96L16.8237 1589.03L20.4688 1597.39L24.1223 1595.19L18.7006 1587.88L18.5776 1587.97Z" fill="#FD4703"/>
<path opacity="0.2" d="M4.46556 1567.35C4.9799 1566.99 5.52028 1566.68 6.08202 1566.4L6.2218 1566.33L2.52056 1557.86L-1.13647 1560.07L4.34012 1567.45L4.46556 1567.35Z" fill="#FD4703"/>
<path opacity="0.2" d="M1.30325 1584.88C0.94276 1584.35 0.623207 1583.79 0.347478 1583.21L0.280574 1583.07L-7.88892 1586.77L-5.73006 1590.5L1.39166 1585.01L1.30325 1584.88Z" fill="#FD4703"/>
<path opacity="0.2" d="M4.56843 1588.16L4.44059 1588.07L-0.80542 1595.43L2.89821 1597.56L6.3629 1589.18L6.22431 1589.11C5.64923 1588.84 5.09565 1588.52 4.56843 1588.16Z" fill="#FD4703"/>
<path opacity="0.2" d="M10.9028 1599.3L12.493 1599.28L13.7104 1587.5L9.46436 1587.55L10.9028 1599.3Z" fill="#FD4703"/>
<path opacity="0.2" d="M21.187 1575.37L21.2276 1579.69L32.7555 1578.23L32.7411 1576.61L21.187 1575.37Z" fill="#FD4703"/>
<path opacity="0.2" d="M12.0866 1555.95L10.4965 1555.96L9.27905 1567.74L13.5251 1567.7L12.0866 1555.95Z" fill="#FD4703"/>
<path opacity="0.2" d="M18.4211 1567.36L23.7973 1559.82L20.0973 1557.69L16.5442 1566.27L16.6828 1566.34C17.2415 1566.61 17.7798 1566.92 18.2933 1567.27L18.4211 1567.36Z" fill="#FD4703"/>
</g>
<g clip-path="url(#clip6_720_2888)">
<path d="M144.291 2322.92C145.75 2325.03 147.05 2327.24 148.179 2329.56L148.456 2330.12L182.341 2314.67L173.56 2299.41L143.951 2322.39L144.291 2322.92Z" fill="#FD4703"/>
<path opacity="0.2" d="M148.874 2373.91C147.814 2376.28 146.576 2378.57 145.171 2380.75L144.831 2381.28L174.513 2403.41L183.027 2387.99L149.156 2373.32L148.874 2373.91Z" fill="#FD4703"/>
<path opacity="0.2" d="M63.8898 2343.63L17 2349.63L17.0583 2356.26L64.0599 2361.34L63.8898 2343.63Z" fill="#FD4703"/>
<path opacity="0.2" d="M58.0098 2330.28C59.1123 2327.92 60.3876 2325.66 61.8246 2323.5L62.1842 2322.97L32.4437 2300.79L23.9541 2316.22L57.7426 2330.85L58.0098 2330.28Z" fill="#FD4703"/>
<path opacity="0.2" d="M132.288 2394.44C130.2 2395.97 128 2397.33 125.708 2398.5L125.154 2398.79L139.981 2432.96L154.841 2423.96L132.788 2394.06L132.288 2394.44Z" fill="#FD4703"/>
<path opacity="0.2" d="M74.887 2310.07C76.9791 2308.61 79.1771 2307.31 81.462 2306.18L82.0306 2305.9L66.9757 2271.24L52.1006 2280.26L74.3768 2310.46L74.887 2310.07Z" fill="#FD4703"/>
<path opacity="0.2" d="M62.0237 2381.79C60.5573 2379.62 59.2576 2377.34 58.136 2374.96L57.8639 2374.38L24.6343 2389.54L33.4155 2404.79L62.3833 2382.32L62.0237 2381.79Z" fill="#FD4703"/>
<path opacity="0.2" d="M75.3048 2395.21L74.7848 2394.85L53.4465 2424.95L68.5111 2433.67L82.6038 2399.39L82.0401 2399.11C79.701 2397.99 77.4493 2396.69 75.3048 2395.21Z" fill="#FD4703"/>
<path opacity="0.2" d="M101.07 2440.79L107.538 2440.73L112.49 2392.53L95.2192 2392.7L101.07 2440.79Z" fill="#FD4703"/>
<path opacity="0.2" d="M142.901 2342.86L143.066 2360.57L189.956 2354.57L189.898 2347.94L142.901 2342.86Z" fill="#FD4703"/>
<path opacity="0.2" d="M105.886 2263.41L99.4179 2263.47L94.4661 2311.67L111.737 2311.5L105.886 2263.41Z" fill="#FD4703"/>
<path opacity="0.2" d="M131.651 2310.08L153.519 2279.25L138.469 2270.54L124.017 2305.65L124.581 2305.92C126.853 2307.02 129.043 2308.29 131.131 2309.72L131.651 2310.08Z" fill="#FD4703"/>
</g>
<g clip-path="url(#clip7_720_2888)">
<path d="M121.774 2338.97C122.428 2339.91 123.01 2340.91 123.516 2341.94L123.64 2342.19L138.821 2335.28L134.887 2328.46L121.622 2338.74L121.774 2338.97Z" fill="#FD4703"/>
<path opacity="0.2" d="M123.827 2361.78C123.352 2362.84 122.798 2363.87 122.169 2364.84L122.016 2365.08L135.314 2374.98L139.128 2368.08L123.954 2361.52L123.827 2361.78Z" fill="#FD4703"/>
<path opacity="0.2" d="M85.7547 2348.24L64.748 2350.92L64.7742 2353.89L85.8309 2356.16L85.7547 2348.24Z" fill="#FD4703"/>
<path opacity="0.2" d="M83.1205 2342.26C83.6144 2341.21 84.1857 2340.2 84.8295 2339.23L84.9906 2338.99L71.6669 2329.07L67.8635 2335.97L83.0008 2342.52L83.1205 2342.26Z" fill="#FD4703"/>
<path opacity="0.2" d="M116.397 2370.96C115.462 2371.65 114.476 2372.25 113.449 2372.78L113.201 2372.91L119.843 2388.2L126.501 2384.17L116.621 2370.79L116.397 2370.96Z" fill="#FD4703"/>
<path opacity="0.2" d="M90.6815 2333.23C91.6187 2332.57 92.6034 2331.99 93.6271 2331.48L93.8818 2331.36L87.1372 2315.85L80.4731 2319.89L90.4529 2333.4L90.6815 2333.23Z" fill="#FD4703"/>
<path opacity="0.2" d="M84.9187 2365.3C84.2617 2364.33 83.6794 2363.31 83.177 2362.25L83.0551 2361.99L68.1682 2368.77L72.1022 2375.59L85.0798 2365.54L84.9187 2365.3Z" fill="#FD4703"/>
<path opacity="0.2" d="M90.8687 2371.31L90.6357 2371.15L81.0762 2384.61L87.8251 2388.51L94.1386 2373.18L93.8861 2373.05C92.8382 2372.55 91.8294 2371.97 90.8687 2371.31Z" fill="#FD4703"/>
<path opacity="0.2" d="M102.411 2391.7L105.309 2391.67L107.528 2370.11L99.7903 2370.19L102.411 2391.7Z" fill="#FD4703"/>
<path opacity="0.2" d="M121.152 2347.89L121.226 2355.81L142.233 2353.13L142.206 2350.16L121.152 2347.89Z" fill="#FD4703"/>
<path opacity="0.2" d="M104.569 2312.35L101.671 2312.38L99.4529 2333.94L107.19 2333.86L104.569 2312.35Z" fill="#FD4703"/>
<path opacity="0.2" d="M116.112 2333.23L125.909 2319.44L119.166 2315.54L112.692 2331.25L112.944 2331.37C113.962 2331.86 114.943 2332.43 115.879 2333.07L116.112 2333.23Z" fill="#FD4703"/>
</g>
<g clip-path="url(#clip8_720_2888)">
<path d="M111.495 2346.3C111.781 2346.72 112.036 2347.15 112.257 2347.6L112.311 2347.71L118.953 2344.7L117.232 2341.73L111.428 2346.2L111.495 2346.3Z" fill="#FD4703"/>
<path opacity="0.2" d="M112.393 2356.24C112.185 2356.7 111.943 2357.15 111.668 2357.57L111.601 2357.68L117.419 2361.99L119.087 2358.98L112.449 2356.13L112.393 2356.24Z" fill="#FD4703"/>
<path opacity="0.2" d="M95.7365 2350.34L86.5461 2351.51L86.5576 2352.8L95.7699 2353.79L95.7365 2350.34Z" fill="#FD4703"/>
<path opacity="0.2" d="M94.5841 2347.74C94.8002 2347.28 95.0501 2346.84 95.3318 2346.42L95.4023 2346.31L89.5731 2341.99L87.9092 2345L94.5317 2347.85L94.5841 2347.74Z" fill="#FD4703"/>
<path opacity="0.2" d="M109.143 2360.24C108.733 2360.54 108.302 2360.8 107.853 2361.03L107.744 2361.09L110.65 2367.74L113.563 2365.99L109.241 2360.17L109.143 2360.24Z" fill="#FD4703"/>
<path opacity="0.2" d="M97.8919 2343.8C98.302 2343.52 98.7328 2343.26 99.1806 2343.04L99.2921 2342.99L96.3413 2336.24L93.4258 2337.99L97.7919 2343.88L97.8919 2343.8Z" fill="#FD4703"/>
<path opacity="0.2" d="M95.3708 2357.77C95.0834 2357.35 94.8286 2356.91 94.6088 2356.44L94.5555 2356.33L88.0425 2359.28L89.7636 2362.26L95.4413 2357.88L95.3708 2357.77Z" fill="#FD4703"/>
<path opacity="0.2" d="M97.9739 2360.39L97.872 2360.32L93.6897 2366.18L96.6424 2367.88L99.4045 2361.2L99.294 2361.15C98.8356 2360.93 98.3942 2360.68 97.9739 2360.39Z" fill="#FD4703"/>
<path opacity="0.2" d="M103.024 2369.27L104.292 2369.26L105.262 2359.87L101.877 2359.9L103.024 2369.27Z" fill="#FD4703"/>
<path opacity="0.2" d="M111.223 2350.19L111.255 2353.64L120.446 2352.47L120.434 2351.18L111.223 2350.19Z" fill="#FD4703"/>
<path opacity="0.2" d="M103.968 2334.71L102.7 2334.72L101.729 2344.11L105.115 2344.08L103.968 2334.71Z" fill="#FD4703"/>
<path opacity="0.2" d="M109.018 2343.8L113.304 2337.8L110.354 2336.1L107.521 2342.94L107.632 2342.99C108.077 2343.21 108.507 2343.46 108.916 2343.73L109.018 2343.8Z" fill="#FD4703"/>
</g>
<g clip-path="url(#clip9_720_2888)">
<path d="M141.279 5252.28C144.354 5256.73 147.093 5261.4 149.473 5266.27L150.057 5267.47L221.474 5234.91L202.967 5202.74L140.562 5251.18L141.279 5252.28Z" fill="#FD4703"/>
<path opacity="0.2" d="M150.938 5359.75C148.703 5364.76 146.094 5369.58 143.133 5374.17L142.416 5375.29L204.975 5421.94L222.919 5389.42L151.532 5358.52L150.938 5359.75Z" fill="#FD4703"/>
<path opacity="0.2" d="M115.982 5403.03C111.581 5406.24 106.944 5409.1 102.114 5411.59L100.946 5412.19L132.195 5484.21L163.515 5465.24L117.036 5402.22L115.982 5403.03Z" fill="#FD4703"/>
<path opacity="0.2" d="M-4.99714 5225.21C-0.587887 5222.12 4.04467 5219.38 8.86031 5217.01L10.0586 5216.41L-21.6711 5143.36L-53.022 5162.39L-6.07256 5226.02L-4.99714 5225.21Z" fill="#FD4703"/>
<path opacity="0.2" d="M-4.11622 5404.64L-5.21212 5403.89L-50.1848 5467.33L-18.4346 5485.7L11.2673 5413.45L10.0792 5412.87C5.14925 5410.5 0.403503 5407.75 -4.11622 5404.64Z" fill="#FD4703"/>
<path opacity="0.2" d="M50.1868 5500.72L63.819 5500.59L74.2556 5399L37.8555 5399.36L50.1868 5500.72Z" fill="#FD4703"/>
<path opacity="0.2" d="M138.35 5294.31L138.698 5331.64L237.524 5318.99L237.401 5305.01L138.35 5294.31Z" fill="#FD4703"/>
<path opacity="0.2" d="M60.3368 5126.86L46.7047 5126.99L36.2681 5228.57L72.6682 5228.22L60.3368 5126.86Z" fill="#FD4703"/>
<path opacity="0.2" d="M114.64 5225.23L160.729 5160.24L129.01 5141.89L98.5498 5215.89L99.7379 5216.46C104.528 5218.78 109.142 5221.46 113.544 5224.48L114.64 5225.23Z" fill="#FD4703"/>
</g>
<g clip-path="url(#clip10_720_2888)">
<path d="M93.8231 5286.12C95.2005 5288.1 96.4277 5290.2 97.4939 5292.37L97.7554 5292.91L129.751 5278.34L121.459 5263.96L93.502 5285.62L93.8231 5286.12Z" fill="#FD4703"/>
<path opacity="0.2" d="M98.1501 5334.19C97.1491 5336.43 95.9801 5338.58 94.6537 5340.64L94.3325 5341.14L122.359 5362L130.398 5347.46L98.4162 5333.64L98.1501 5334.19Z" fill="#FD4703"/>
<path opacity="0.2" d="M17.9077 5305.64L-26.366 5311.3L-26.3109 5317.55L18.0683 5322.34L17.9077 5305.64Z" fill="#FD4703"/>
<path opacity="0.2" d="M12.3556 5293.06C13.3966 5290.83 14.6007 5288.7 15.9575 5286.67L16.2971 5286.16L-11.7841 5265.26L-19.8 5279.8L12.1033 5293.6L12.3556 5293.06Z" fill="#FD4703"/>
<path opacity="0.2" d="M82.4897 5353.55C80.5181 5354.98 78.441 5356.26 76.277 5357.38L75.7539 5357.64L89.7532 5389.86L103.785 5381.38L82.9623 5353.18L82.4897 5353.55Z" fill="#FD4703"/>
<path opacity="0.2" d="M28.2912 5274.01C30.2666 5272.62 32.342 5271.4 34.4994 5270.34L35.0362 5270.07L20.8213 5237.39L6.77612 5245.9L27.8095 5274.37L28.2912 5274.01Z" fill="#FD4703"/>
<path opacity="0.2" d="M16.1459 5341.62C14.7614 5339.57 13.5341 5337.42 12.4751 5335.18L12.2182 5334.63L-19.1575 5348.92L-10.8662 5363.31L16.4854 5342.11L16.1459 5341.62Z" fill="#FD4703"/>
<path opacity="0.2" d="M28.6858 5354.27L28.1949 5353.93L8.04712 5382.31L22.2712 5390.53L35.5777 5358.21L35.0454 5357.95C32.8368 5356.89 30.7107 5355.66 28.6858 5354.27Z" fill="#FD4703"/>
<path opacity="0.2" d="M53.0137 5397.24L59.1209 5397.19L63.7965 5351.75L47.4893 5351.91L53.0137 5397.24Z" fill="#FD4703"/>
<path opacity="0.2" d="M92.511 5304.92L92.667 5321.61L136.941 5315.96L136.886 5309.7L92.511 5304.92Z" fill="#FD4703"/>
<path opacity="0.2" d="M57.5609 5230.01L51.4537 5230.07L46.7781 5275.51L63.0853 5275.35L57.5609 5230.01Z" fill="#FD4703"/>
<path opacity="0.2" d="M81.8888 5274.02L102.537 5244.95L88.3264 5236.74L74.6804 5269.84L75.2127 5270.09C77.3585 5271.13 79.4259 5272.33 81.3979 5273.68L81.8888 5274.02Z" fill="#FD4703"/>
</g>
<g clip-path="url(#clip11_720_2888)">
<path d="M72.1583 5301.57C72.7609 5302.44 73.2978 5303.35 73.7643 5304.3L73.8787 5304.53L87.8766 5298.19L84.2491 5291.92L72.0178 5301.36L72.1583 5301.57Z" fill="#FD4703"/>
<path opacity="0.2" d="M74.0515 5322.51C73.6136 5323.49 73.1022 5324.43 72.5219 5325.32L72.3813 5325.54L84.6428 5334.63L88.1598 5328.29L74.168 5322.27L74.0515 5322.51Z" fill="#FD4703"/>
<path opacity="0.2" d="M38.9454 5310.08L19.5757 5312.54L19.5998 5315.27L39.0157 5317.35L38.9454 5310.08Z" fill="#FD4703"/>
<path opacity="0.2" d="M36.5164 5304.59C36.9718 5303.63 37.4986 5302.7 38.0922 5301.81L38.2407 5301.59L25.9552 5292.49L22.4482 5298.82L36.4059 5304.83L36.5164 5304.59Z" fill="#FD4703"/>
<path opacity="0.2" d="M67.2001 5330.94C66.3375 5331.57 65.4288 5332.13 64.482 5332.61L64.2532 5332.73L70.3779 5346.76L76.5166 5343.06L67.4069 5330.79L67.2001 5330.94Z" fill="#FD4703"/>
<path opacity="0.2" d="M43.4883 5296.3C44.3525 5295.7 45.2605 5295.16 46.2044 5294.7L46.4392 5294.58L40.2202 5280.35L34.0754 5284.06L43.2775 5296.46L43.4883 5296.3Z" fill="#FD4703"/>
<path opacity="0.2" d="M38.1745 5325.75C37.5687 5324.86 37.0318 5323.92 36.5685 5322.94L36.4561 5322.7L22.7292 5328.93L26.3567 5335.19L38.323 5325.96L38.1745 5325.75Z" fill="#FD4703"/>
<path opacity="0.2" d="M43.6608 5331.26L43.446 5331.11L34.6313 5343.47L40.8544 5347.05L46.676 5332.97L46.4431 5332.86C45.4768 5332.4 44.5467 5331.86 43.6608 5331.26Z" fill="#FD4703"/>
<path opacity="0.2" d="M54.3044 5349.97L56.9763 5349.95L59.0219 5330.16L51.8875 5330.23L54.3044 5349.97Z" fill="#FD4703"/>
<path opacity="0.2" d="M71.5842 5309.76L71.6525 5317.03L91.0222 5314.57L90.9981 5311.85L71.5842 5309.76Z" fill="#FD4703"/>
<path opacity="0.2" d="M56.2936 5277.14L53.6217 5277.16L51.5762 5296.95L58.7106 5296.88L56.2936 5277.14Z" fill="#FD4703"/>
<path opacity="0.2" d="M66.9371 5296.3L75.9706 5283.64L69.7536 5280.07L63.7834 5294.48L64.0163 5294.59C64.9551 5295.05 65.8596 5295.57 66.7223 5296.16L66.9371 5296.3Z" fill="#FD4703"/>
</g>
<g clip-path="url(#clip12_720_2888)">
<path d="M267.43 3358.87C269.521 3361.89 271.383 3365.07 273.002 3368.39L273.399 3369.2L321.963 3347.06L309.378 3325.19L266.942 3358.12L267.43 3358.87Z" fill="#FD4703"/>
<path opacity="0.2" d="M273.998 3431.95C272.478 3435.35 270.704 3438.63 268.691 3441.76L268.203 3442.51L310.743 3474.24L322.945 3452.13L274.402 3431.11L273.998 3431.95Z" fill="#FD4703"/>
<path opacity="0.2" d="M152.201 3388.56L85 3397.16L85.0836 3406.66L152.445 3413.94L152.201 3388.56Z" fill="#FD4703"/>
<path opacity="0.2" d="M143.774 3369.42C145.354 3366.05 147.182 3362.8 149.241 3359.71L149.757 3358.94L107.133 3327.16L94.9663 3349.27L143.391 3370.24L143.774 3369.42Z" fill="#FD4703"/>
<path opacity="0.2" d="M250.227 3461.38C247.235 3463.56 244.082 3465.51 240.797 3467.2L240.003 3467.61L261.252 3516.59L282.55 3503.69L250.945 3460.83L250.227 3461.38Z" fill="#FD4703"/>
<path opacity="0.2" d="M167.962 3340.46C170.96 3338.36 174.11 3336.5 177.385 3334.89L178.2 3334.48L156.624 3284.81L135.305 3297.74L167.231 3341.01L167.962 3340.46Z" fill="#FD4703"/>
<path opacity="0.2" d="M149.527 3443.24C147.425 3440.13 145.563 3436.86 143.955 3433.46L143.565 3432.62L95.9414 3454.35L108.526 3476.21L150.042 3444L149.527 3443.24Z" fill="#FD4703"/>
<path opacity="0.2" d="M168.561 3462.48L167.816 3461.96L137.234 3505.11L158.825 3517.59L179.022 3468.46L178.214 3468.07C174.862 3466.46 171.634 3464.59 168.561 3462.48Z" fill="#FD4703"/>
<path opacity="0.2" d="M205.487 3527.81L214.757 3527.72L221.854 3458.64L197.102 3458.89L205.487 3527.81Z" fill="#FD4703"/>
<path opacity="0.2" d="M265.438 3387.45L265.675 3412.84L332.876 3404.24L332.793 3394.73L265.438 3387.45Z" fill="#FD4703"/>
<path opacity="0.2" d="M212.389 3273.59L203.119 3273.67L196.022 3342.75L220.774 3342.51L212.389 3273.59Z" fill="#FD4703"/>
<path opacity="0.2" d="M249.315 3340.48L280.656 3296.29L259.086 3283.81L238.374 3334.13L239.182 3334.51C242.439 3336.09 245.577 3337.91 248.57 3339.96L249.315 3340.48Z" fill="#FD4703"/>
</g>
<g clip-path="url(#clip13_720_2888)">
<path d="M235.16 3381.88C236.096 3383.23 236.931 3384.65 237.656 3386.13L237.834 3386.5L259.59 3376.59L253.952 3366.81L234.941 3381.54L235.16 3381.88Z" fill="#FD4703"/>
<path opacity="0.2" d="M238.102 3414.57C237.421 3416.09 236.626 3417.56 235.725 3418.95L235.506 3419.29L254.564 3433.48L260.03 3423.59L238.283 3414.19L238.102 3414.57Z" fill="#FD4703"/>
<path opacity="0.2" d="M183.537 3395.16L153.431 3399L153.469 3403.26L183.646 3406.51L183.537 3395.16Z" fill="#FD4703"/>
<path opacity="0.2" d="M179.762 3386.6C180.47 3385.09 181.288 3383.64 182.211 3382.25L182.442 3381.91L163.347 3367.7L157.896 3377.58L179.59 3386.97L179.762 3386.6Z" fill="#FD4703"/>
<path opacity="0.2" d="M227.453 3427.73C226.112 3428.71 224.7 3429.58 223.228 3430.34L222.873 3430.52L232.392 3452.43L241.934 3446.66L227.775 3427.49L227.453 3427.73Z" fill="#FD4703"/>
<path opacity="0.2" d="M190.598 3373.64C191.941 3372.7 193.353 3371.87 194.82 3371.15L195.185 3370.97L185.518 3348.75L175.968 3354.53L190.27 3373.89L190.598 3373.64Z" fill="#FD4703"/>
<path opacity="0.2" d="M182.339 3419.62C181.398 3418.23 180.563 3416.77 179.843 3415.24L179.668 3414.87L158.333 3424.59L163.971 3434.37L182.57 3419.96L182.339 3419.62Z" fill="#FD4703"/>
<path opacity="0.2" d="M190.866 3428.22L190.533 3427.99L176.832 3447.29L186.504 3452.88L195.553 3430.9L195.191 3430.73C193.689 3430.01 192.243 3429.17 190.866 3428.22Z" fill="#FD4703"/>
<path opacity="0.2" d="M207.409 3457.45L211.562 3457.41L214.742 3426.51L203.653 3426.62L207.409 3457.45Z" fill="#FD4703"/>
<path opacity="0.2" d="M234.267 3394.66L234.373 3406.02L264.48 3402.17L264.442 3397.92L234.267 3394.66Z" fill="#FD4703"/>
<path opacity="0.2" d="M210.501 3343.73L206.349 3343.77L203.169 3374.67L214.258 3374.56L210.501 3343.73Z" fill="#FD4703"/>
<path opacity="0.2" d="M227.044 3373.65L241.085 3353.88L231.422 3348.3L222.143 3370.81L222.505 3370.98C223.964 3371.69 225.37 3372.5 226.71 3373.42L227.044 3373.65Z" fill="#FD4703"/>
</g>
<g clip-path="url(#clip14_720_2888)">
<path d="M220.428 3392.39C220.837 3392.98 221.202 3393.6 221.52 3394.24L221.597 3394.4L231.116 3390.09L228.649 3385.83L220.332 3392.24L220.428 3392.39Z" fill="#FD4703"/>
<path opacity="0.2" d="M221.715 3406.63C221.417 3407.29 221.069 3407.93 220.675 3408.54L220.579 3408.69L228.917 3414.87L231.308 3410.56L221.794 3406.46L221.715 3406.63Z" fill="#FD4703"/>
<path opacity="0.2" d="M197.843 3398.17L184.671 3399.85L184.688 3401.7L197.891 3403.12L197.843 3398.17Z" fill="#FD4703"/>
<path opacity="0.2" d="M196.191 3394.44C196.501 3393.79 196.859 3393.15 197.263 3392.55L197.364 3392.4L189.01 3386.21L186.625 3390.52L196.116 3394.6L196.191 3394.44Z" fill="#FD4703"/>
<path opacity="0.2" d="M217.056 3412.36C216.469 3412.79 215.851 3413.17 215.208 3413.5L215.052 3413.57L219.217 3423.12L223.391 3420.6L217.197 3412.25L217.056 3412.36Z" fill="#FD4703"/>
<path opacity="0.2" d="M200.932 3388.8C201.52 3388.39 202.137 3388.03 202.779 3387.72L202.939 3387.64L198.71 3377.96L194.531 3380.48L200.789 3388.91L200.932 3388.8Z" fill="#FD4703"/>
<path opacity="0.2" d="M197.319 3408.83C196.907 3408.22 196.542 3407.58 196.227 3406.92L196.15 3406.76L186.816 3410.99L189.283 3415.25L197.42 3408.98L197.319 3408.83Z" fill="#FD4703"/>
<path opacity="0.2" d="M201.049 3412.58L200.903 3412.48L194.909 3420.88L199.141 3423.31L203.1 3413.74L202.941 3413.66C202.284 3413.35 201.652 3412.99 201.049 3412.58Z" fill="#FD4703"/>
<path opacity="0.2" d="M208.287 3425.3L210.104 3425.29L211.495 3411.83L206.643 3411.88L208.287 3425.3Z" fill="#FD4703"/>
<path opacity="0.2" d="M220.037 3397.96L220.084 3402.9L233.255 3401.23L233.239 3399.38L220.037 3397.96Z" fill="#FD4703"/>
<path opacity="0.2" d="M209.64 3375.77L207.823 3375.79L206.432 3389.25L211.283 3389.2L209.64 3375.77Z" fill="#FD4703"/>
<path opacity="0.2" d="M216.877 3388.81L223.02 3380.2L218.792 3377.76L214.733 3387.57L214.891 3387.64C215.529 3387.95 216.144 3388.31 216.731 3388.71L216.877 3388.81Z" fill="#FD4703"/>
</g>
<path d="M381 19V6477.5" stroke="#D7D2CB" stroke-width="10"/>
<path d="M381 56V176" stroke="#004650" stroke-width="15" stroke-linecap="round"/>
<path d="M381 374V634" stroke="#23A5BC" stroke-width="15" stroke-linecap="round"/>
<path d="M381 748V826" stroke="#FD4703" stroke-width="15" stroke-linecap="round"/>
<path d="M381 1844V2446" stroke="#FD4703" stroke-width="15" stroke-linecap="round"/>
<path d="M381 3535V3700" stroke="#FD4703" stroke-width="15" stroke-linecap="round"/>
<path d="M381 5766V6182" stroke="#FD4703" stroke-width="15" stroke-linecap="round"/>
<path d="M381 903V1168" stroke="#004650" stroke-width="15" stroke-linecap="round"/>
<path d="M381 1287V1380.5" stroke="#23A5BC" stroke-width="15" stroke-linecap="round"/>
<path d="M383 2560L381.009 2861.5M381.009 3795L381.009 3892.5M381.009 5200L381.009 5416.5" stroke="#004650" stroke-width="15" stroke-linecap="round"/>
<path d="M381 2980.5V3170.5M381 4267.5V4807" stroke="#23A5BC" stroke-width="15" stroke-linecap="round"/>
<defs>
<clipPath id="clip0_720_2888">
<rect width="546.187" height="561.742" fill="white" transform="translate(-218 133)"/>
</clipPath>
<clipPath id="clip1_720_2888">
<rect width="244.692" height="251.276" fill="white" transform="translate(-67.2522 288.233)"/>
</clipPath>
<clipPath id="clip2_720_2888">
<rect width="107.053" height="109.445" fill="white" transform="translate(1.56738 359.149)"/>
</clipPath>
<clipPath id="clip3_720_2888">
<rect width="217" height="223.18" fill="white" transform="translate(-97 1466)"/>
</clipPath>
<clipPath id="clip4_720_2888">
<rect width="97.216" height="99.8321" fill="white" transform="translate(-37.1079 1527.67)"/>
</clipPath>
<clipPath id="clip5_720_2888">
<rect width="42.532" height="43.4824" fill="white" transform="translate(-9.76587 1555.85)"/>
</clipPath>
<clipPath id="clip6_720_2888">
<rect width="173" height="177.927" fill="white" transform="translate(17 2263)"/>
</clipPath>
<clipPath id="clip7_720_2888">
<rect width="77.504" height="79.5896" fill="white" transform="translate(64.748 2312.17)"/>
</clipPath>
<clipPath id="clip8_720_2888">
<rect width="33.908" height="34.6657" fill="white" transform="translate(86.5461 2334.63)"/>
</clipPath>
<clipPath id="clip9_720_2888">
<rect width="364.616" height="375" fill="white" transform="translate(-127 5126)"/>
</clipPath>
<clipPath id="clip10_720_2888">
<rect width="163.348" height="167.744" fill="white" transform="translate(-26.366 5229.63)"/>
</clipPath>
<clipPath id="clip11_720_2888">
<rect width="71.4647" height="73.0616" fill="white" transform="translate(19.5757 5276.97)"/>
</clipPath>
<clipPath id="clip12_720_2888">
<rect width="247.939" height="255" fill="white" transform="translate(85 3273)"/>
</clipPath>
<clipPath id="clip13_720_2888">
<rect width="111.077" height="114.066" fill="white" transform="translate(153.431 3343.47)"/>
</clipPath>
<clipPath id="clip14_720_2888">
<rect width="48.596" height="49.6819" fill="white" transform="translate(184.671 3375.66)"/>
</clipPath>
</defs>
</svg>
