<svg width="1114" height="1024" viewBox="0 0 1114 1024" fill="none" xmlns="http://www.w3.org/2000/svg">
<g clip-path="url(#clip0_1205_9556)">
<path opacity="0.1" d="M1165.43 840.67C1153.19 857.662 1139.65 873.678 1124.95 888.576L1121.39 892.188L1325.37 1113.76L1417.95 1006.03L1168.6 836.534L1165.43 840.67Z" fill="#FD4703"/>
<path opacity="0.1" d="M529.611 466.612L143.273 438.833L133.363 491.107L503.264 606.214L529.611 466.612Z" fill="#FD4703"/>
<path opacity="0.1" d="M503.232 352.182C515.78 335.419 529.577 319.635 544.504 304.965L548.229 301.345L343.839 79.3695L251.455 187.13L500.186 356.263L503.232 352.182Z" fill="#FD4703"/>
<path opacity="0.1" d="M999.964 975.669C980.79 984.33 960.981 991.494 940.713 997.099L935.815 998.447L1001.53 1290.98L1135.08 1243.94L1004.59 973.451L999.964 975.669Z" fill="#FD4703"/>
<path opacity="0.1" d="M670.522 220.237C689.636 212.043 709.342 205.323 729.469 200.132L734.484 198.807L667.686 -97.891L533.982 -50.6789L665.82 222.44L670.522 220.237Z" fill="#FD4703"/>
<path opacity="0.1" d="M454.906 763.773C446.513 744.364 439.636 724.329 434.337 703.847L433.062 698.825L142.206 764.947L188.928 898.992L456.971 768.504L454.906 763.773Z" fill="#FD4703"/>
<path opacity="0.1" d="M540.674 890.587L537.055 886.933L318.415 1089.6L425.889 1182.22L592.816 935.111L588.714 932.054C571.665 919.486 555.605 905.623 540.674 890.587Z" fill="#FD4703"/>
<path opacity="0.1" d="M676.481 1290.35L728.571 1300.22L843.796 928.996L704.689 902.712L676.481 1290.35Z" fill="#FD4703"/>
<path opacity="0.1" d="M992.739 -97.2601L940.648 -107.133L825.424 264.09L964.53 290.375L992.739 -97.2601Z" fill="#FD4703"/>
<path opacity="0.1" d="M1126.84 311.085L1350.88 103.499L1243.52 10.9434L1072.4 264.025L1076.51 267.043C1093.06 279.322 1108.67 292.822 1123.22 307.431L1126.84 311.085Z" fill="#FD4703"/>
</g>
<defs>
<clipPath id="clip0_1205_9556">
<rect width="1418" height="1427" fill="white" transform="translate(278.82 -242.609) rotate(11.25)"/>
</clipPath>
</defs>
</svg>
