<svg width="40" height="40" viewBox="0 0 40 40" fill="none" xmlns="http://www.w3.org/2000/svg">
<g opacity="0.7">
<rect width="40" height="40" rx="20" fill="#002830"/>
<path fill-rule="evenodd" clip-rule="evenodd" d="M24.3431 13.2929L30.7071 19.6569C31.0976 20.0474 31.0976 20.6805 30.7071 21.0711L24.3431 27.435C23.9526 27.8256 23.3195 27.8256 22.9289 27.435C22.5384 27.0445 22.5384 26.4113 22.9289 26.0208L27.5858 21.364L11 21.364C10.4477 21.364 10 20.9162 10 20.364C10 19.8117 10.4477 19.364 11 19.364L27.5858 19.364L22.9289 14.7071C22.5384 14.3166 22.5384 13.6834 22.9289 13.2929C23.3195 12.9024 23.9526 12.9024 24.3431 13.2929Z" fill="white"/>
</g>
</svg>
