<svg width="320" height="429" viewBox="0 0 320 429" fill="none" xmlns="http://www.w3.org/2000/svg">
<g clip-path="url(#clip0_1_201)">
<rect width="320" height="429" rx="50" fill="#FD4703"/>
<g opacity="0.1" clip-path="url(#clip1_1_201)">
<path d="M245.385 311.675L148.993 298.877L145.737 311.783L236.72 346.144L245.385 311.675Z" fill="white"/>
<path d="M240.467 282.694C243.859 278.697 247.549 274.964 251.507 271.526L252.493 270.679L204.561 212.135L179.82 237.649L239.644 283.667L240.467 282.694Z" fill="white"/>
<path d="M284.335 252.275C289.245 250.518 294.282 249.139 299.402 248.148L300.678 247.893L288.327 172.773L254.127 182.537L283.124 252.754L284.335 252.275Z" fill="white"/>
<path d="M222.274 384.765C220.458 379.79 219.031 374.681 218.006 369.485L217.761 368.211L143.905 380.315L153.63 414.504L222.722 385.978L222.274 384.765Z" fill="white"/>
<path d="M241.89 417.74L241.037 416.772L183.258 464.077L208.818 488.841L254.297 429.652L253.314 428.826C249.228 425.428 245.409 421.722 241.89 417.74Z" fill="white"/>
<path d="M270.009 519.649L282.915 522.905L317.274 431.931L282.807 423.256L270.009 519.649Z" fill="white"/>
</g>
</g>
<defs>
<clipPath id="clip0_1_201">
<rect width="320" height="429" rx="50" fill="white"/>
</clipPath>
<clipPath id="clip1_1_201">
<rect width="356" height="357" fill="white" transform="translate(193.03 130.728) rotate(14.6757)"/>
</clipPath>
</defs>
</svg>
