<svg width="320" height="440" viewBox="0 0 320 440" fill="none" xmlns="http://www.w3.org/2000/svg">
<g clip-path="url(#clip0_777_4992)">
<rect width="320" height="360" rx="30" fill="white"/>
<rect width="320" height="74" fill="#FD4703"/>
<g opacity="0.1" clip-path="url(#clip1_777_4992)">
<path d="M245.386 311.675L148.993 298.877L145.737 311.783L236.72 346.144L245.386 311.675Z" fill="#FD4703"/>
<path d="M240.467 282.694C243.859 278.697 247.55 274.964 251.507 271.526L252.494 270.679L204.562 212.135L179.821 237.649L239.644 283.667L240.467 282.694Z" fill="#FD4703"/>
<path d="M284.335 252.275C289.245 250.518 294.282 249.139 299.402 248.148L300.678 247.893L288.327 172.773L254.127 182.537L283.124 252.754L284.335 252.275Z" fill="#FD4703"/>
<path d="M222.274 384.765C220.458 379.79 219.031 374.681 218.006 369.485L217.761 368.211L143.905 380.315L153.631 414.504L222.722 385.978L222.274 384.765Z" fill="#FD4703"/>
</g>
</g>
<rect x="0.5" y="0.5" width="319" height="359" rx="29.5" stroke="#002830" stroke-opacity="0.3"/>
<defs>
<clipPath id="clip0_777_4992">
<rect width="320" height="360" rx="30" fill="white"/>
</clipPath>
<clipPath id="clip1_777_4992">
<rect width="356" height="357" fill="white" transform="translate(193.03 130.728) rotate(14.6757)"/>
</clipPath>
</defs>
</svg>
