<svg width="1044" height="1282" viewBox="0 0 1044 1282" fill="none" xmlns="http://www.w3.org/2000/svg">
<g clip-path="url(#clip0_1228_9920)">
<path opacity="0.1" d="M1069.76 571.25C1067.11 586.763 1063.28 602.053 1058.3 616.987L1057.07 620.656L1273.01 703.469L1300.05 599.015L1070.52 567.496L1069.76 571.25Z" fill="#002830"/>
<path opacity="0.1" d="M870.292 811.123C855.384 816.684 840.07 821.083 824.488 824.28L820.713 825.056L856.204 1051.25L960.188 1022.33L874.046 809.853L870.292 811.123Z" fill="#002830"/>
<path opacity="0.1" d="M626.105 306.061L393.554 125.213L365.233 154.048L550.546 383.119L626.105 306.061Z" fill="#002830"/>
<path opacity="0.1" d="M657.706 222.619C672.712 217.332 688.095 213.192 703.723 210.234L707.606 209.522L672.03 -17.1052L568.152 11.9244L654.059 223.91L657.706 222.619Z" fill="#002830"/>
<path opacity="0.1" d="M708.718 826.472C692.941 823.839 677.393 819.992 662.214 814.966L658.548 813.747L576.677 1026.33L680.962 1053.06L712.577 827.025L708.718 826.472Z" fill="#002830"/>
<path opacity="0.1" d="M819.148 209.972C834.69 212.875 849.985 216.958 864.901 222.187L868.631 223.47L951.578 7.79382L847.121 -18.8939L815.246 209.376L819.148 209.972Z" fill="#002830"/>
<path opacity="0.1" d="M453.495 462.219C456.377 446.409 460.482 430.845 465.773 415.665L467.086 411.954L255.288 330.787L228.274 435.22L452.804 466.08L453.495 462.219Z" fill="#002830"/>
<path opacity="0.1" d="M454.219 578.586L453.473 574.748L229.723 610.371L258.599 714.311L468.402 628.755L467.098 625.089C461.621 609.943 457.315 594.397 454.219 578.586Z" fill="#002830"/>
<path opacity="0.1" d="M371.421 888.541L400.192 916.795L629.669 730.976L552.806 655.573L371.421 888.541Z" fill="#002830"/>
<path opacity="0.1" d="M977.73 651.03L902.15 728.067L1134.7 908.914L1163.02 880.079L977.73 651.03Z" fill="#002830"/>
<path opacity="0.1" d="M1156.83 145.587L1128.06 117.332L898.586 303.152L975.449 378.555L1156.83 145.587Z" fill="#002830"/>
<path opacity="0.1" d="M1069.33 460.243L1298.57 423.799L1269.74 319.945L1054.77 407.502L1056.09 411.146C1061.38 425.899 1065.55 441.027 1068.59 456.405L1069.33 460.243Z" fill="#002830"/>
</g>
<defs>
<clipPath id="clip0_1228_9920">
<rect width="1078.5" height="1084.03" fill="white" transform="translate(766.768 -248) rotate(45)"/>
</clipPath>
</defs>
</svg>
